<mxfile host="Electron" agent="Mozilla/5.0 (Windows NT 10.0; Win64; x64) AppleWebKit/537.36 (KHTML, like Gecko) draw.io/26.2.2 Chrome/134.0.6998.178 Electron/35.1.2 Safari/537.36" version="26.2.2">
  <diagram name="Page-1" id="2YBvvXClWsGukQMizWep">
    <mxGraphModel dx="2078" dy="776" grid="1" gridSize="10" guides="1" tooltips="1" connect="1" arrows="1" fold="1" page="1" pageScale="1" pageWidth="850" pageHeight="1100" math="0" shadow="0">
      <root>
        <mxCell id="0" />
        <mxCell id="1" parent="0" />
        <mxCell id="VzhV1w4Y9E7jyR9WxPUb-3" value="" style="shape=umlLifeline;perimeter=lifelinePerimeter;whiteSpace=wrap;html=1;container=1;dropTarget=0;collapsible=0;recursiveResize=0;outlineConnect=0;portConstraint=eastwest;newEdgeStyle={&quot;curved&quot;:0,&quot;rounded&quot;:0};participant=umlActor;" vertex="1" parent="1">
          <mxGeometry x="-130" y="60" width="20" height="640" as="geometry" />
        </mxCell>
        <mxCell id="VzhV1w4Y9E7jyR9WxPUb-6" value="ProfileScreen" style="shape=umlLifeline;perimeter=lifelinePerimeter;whiteSpace=wrap;html=1;container=1;dropTarget=0;collapsible=0;recursiveResize=0;outlineConnect=0;portConstraint=eastwest;newEdgeStyle={&quot;curved&quot;:0,&quot;rounded&quot;:0};" vertex="1" parent="1">
          <mxGeometry x="-80" y="60" width="100" height="650" as="geometry" />
        </mxCell>
        <mxCell id="VzhV1w4Y9E7jyR9WxPUb-10" value="" style="html=1;points=[[0,0,0,0,5],[0,1,0,0,-5],[1,0,0,0,5],[1,1,0,0,-5]];perimeter=orthogonalPerimeter;outlineConnect=0;targetShapes=umlLifeline;portConstraint=eastwest;newEdgeStyle={&quot;curved&quot;:0,&quot;rounded&quot;:0};fillColor=#0000FF;" vertex="1" parent="VzhV1w4Y9E7jyR9WxPUb-6">
          <mxGeometry x="45" y="100" width="10" height="40" as="geometry" />
        </mxCell>
        <mxCell id="VzhV1w4Y9E7jyR9WxPUb-9" value="Select Screen" style="html=1;verticalAlign=bottom;endArrow=block;curved=0;rounded=0;" edge="1" parent="1" source="VzhV1w4Y9E7jyR9WxPUb-3" target="VzhV1w4Y9E7jyR9WxPUb-6">
          <mxGeometry width="80" relative="1" as="geometry">
            <mxPoint x="380" y="320" as="sourcePoint" />
            <mxPoint x="460" y="320" as="targetPoint" />
            <Array as="points">
              <mxPoint x="-70" y="160" />
            </Array>
          </mxGeometry>
        </mxCell>
        <mxCell id="VzhV1w4Y9E7jyR9WxPUb-13" value="MakeAnnouncmentScreen" style="shape=umlLifeline;perimeter=lifelinePerimeter;whiteSpace=wrap;html=1;container=1;dropTarget=0;collapsible=0;recursiveResize=0;outlineConnect=0;portConstraint=eastwest;newEdgeStyle={&quot;curved&quot;:0,&quot;rounded&quot;:0};" vertex="1" parent="1">
          <mxGeometry x="80" y="60" width="100" height="650" as="geometry" />
        </mxCell>
        <mxCell id="VzhV1w4Y9E7jyR9WxPUb-14" value="" style="html=1;points=[[0,0,0,0,5],[0,1,0,0,-5],[1,0,0,0,5],[1,1,0,0,-5]];perimeter=orthogonalPerimeter;outlineConnect=0;targetShapes=umlLifeline;portConstraint=eastwest;newEdgeStyle={&quot;curved&quot;:0,&quot;rounded&quot;:0};fillColor=#0000FF;" vertex="1" parent="VzhV1w4Y9E7jyR9WxPUb-13">
          <mxGeometry x="45" y="140" width="10" height="290" as="geometry" />
        </mxCell>
        <mxCell id="VzhV1w4Y9E7jyR9WxPUb-21" value="checkMakeAnnouncmentDeatails()" style="html=1;verticalAlign=bottom;endArrow=block;curved=0;rounded=0;" edge="1" parent="VzhV1w4Y9E7jyR9WxPUb-13" source="VzhV1w4Y9E7jyR9WxPUb-13" target="VzhV1w4Y9E7jyR9WxPUb-14">
          <mxGeometry x="-0.1952" y="50" width="80" relative="1" as="geometry">
            <mxPoint x="210" y="260" as="sourcePoint" />
            <mxPoint x="290" y="260" as="targetPoint" />
            <Array as="points">
              <mxPoint x="100" y="250" />
              <mxPoint x="100" y="260" />
              <mxPoint x="100" y="280" />
            </Array>
            <mxPoint as="offset" />
          </mxGeometry>
        </mxCell>
        <mxCell id="VzhV1w4Y9E7jyR9WxPUb-15" value="display()" style="html=1;verticalAlign=bottom;endArrow=block;curved=0;rounded=0;" edge="1" parent="1" source="VzhV1w4Y9E7jyR9WxPUb-6" target="VzhV1w4Y9E7jyR9WxPUb-13">
          <mxGeometry width="80" relative="1" as="geometry">
            <mxPoint x="260" y="320" as="sourcePoint" />
            <mxPoint x="340" y="320" as="targetPoint" />
            <Array as="points">
              <mxPoint x="40" y="200" />
            </Array>
          </mxGeometry>
        </mxCell>
        <mxCell id="VzhV1w4Y9E7jyR9WxPUb-16" value="DBManager" style="shape=umlLifeline;perimeter=lifelinePerimeter;whiteSpace=wrap;html=1;container=1;dropTarget=0;collapsible=0;recursiveResize=0;outlineConnect=0;portConstraint=eastwest;newEdgeStyle={&quot;curved&quot;:0,&quot;rounded&quot;:0};" vertex="1" parent="1">
          <mxGeometry x="590" y="60" width="100" height="650" as="geometry" />
        </mxCell>
        <mxCell id="VzhV1w4Y9E7jyR9WxPUb-20" value="" style="html=1;points=[[0,0,0,0,5],[0,1,0,0,-5],[1,0,0,0,5],[1,1,0,0,-5]];perimeter=orthogonalPerimeter;outlineConnect=0;targetShapes=umlLifeline;portConstraint=eastwest;newEdgeStyle={&quot;curved&quot;:0,&quot;rounded&quot;:0};fillColor=#0000FF;" vertex="1" parent="VzhV1w4Y9E7jyR9WxPUb-16">
          <mxGeometry x="45" y="180" width="10" height="30" as="geometry" />
        </mxCell>
        <mxCell id="VzhV1w4Y9E7jyR9WxPUb-24" value="" style="html=1;points=[[0,0,0,0,5],[0,1,0,0,-5],[1,0,0,0,5],[1,1,0,0,-5]];perimeter=orthogonalPerimeter;outlineConnect=0;targetShapes=umlLifeline;portConstraint=eastwest;newEdgeStyle={&quot;curved&quot;:0,&quot;rounded&quot;:0};fillColor=#0000CC;" vertex="1" parent="VzhV1w4Y9E7jyR9WxPUb-16">
          <mxGeometry x="45" y="310" width="10" height="30" as="geometry" />
        </mxCell>
        <mxCell id="VzhV1w4Y9E7jyR9WxPUb-17" value="query MakeAnnoumcmentDetails()" style="html=1;verticalAlign=bottom;endArrow=block;curved=0;rounded=0;" edge="1" parent="1" source="VzhV1w4Y9E7jyR9WxPUb-13" target="VzhV1w4Y9E7jyR9WxPUb-16">
          <mxGeometry width="80" relative="1" as="geometry">
            <mxPoint x="260" y="320" as="sourcePoint" />
            <mxPoint x="340" y="320" as="targetPoint" />
            <Array as="points">
              <mxPoint x="360" y="240" />
            </Array>
          </mxGeometry>
        </mxCell>
        <mxCell id="VzhV1w4Y9E7jyR9WxPUb-18" value="return MakeAnnoumcmentDetails" style="html=1;verticalAlign=bottom;endArrow=open;dashed=1;endSize=8;curved=0;rounded=0;" edge="1" parent="1" source="VzhV1w4Y9E7jyR9WxPUb-16" target="VzhV1w4Y9E7jyR9WxPUb-13">
          <mxGeometry relative="1" as="geometry">
            <mxPoint x="340" y="320" as="sourcePoint" />
            <mxPoint x="260" y="320" as="targetPoint" />
            <Array as="points">
              <mxPoint x="370" y="270" />
            </Array>
          </mxGeometry>
        </mxCell>
        <mxCell id="VzhV1w4Y9E7jyR9WxPUb-19" value="provideDetails()&amp;amp;Sumbit" style="html=1;verticalAlign=bottom;endArrow=block;curved=0;rounded=0;" edge="1" parent="1" source="VzhV1w4Y9E7jyR9WxPUb-3" target="VzhV1w4Y9E7jyR9WxPUb-13">
          <mxGeometry width="80" relative="1" as="geometry">
            <mxPoint x="260" y="320" as="sourcePoint" />
            <mxPoint x="340" y="320" as="targetPoint" />
            <Array as="points">
              <mxPoint x="-10" y="300" />
            </Array>
          </mxGeometry>
        </mxCell>
        <mxCell id="VzhV1w4Y9E7jyR9WxPUb-23" value="validateMakeAnnoumcmentDetails()" style="html=1;verticalAlign=bottom;endArrow=block;curved=0;rounded=0;" edge="1" parent="1" source="VzhV1w4Y9E7jyR9WxPUb-13" target="VzhV1w4Y9E7jyR9WxPUb-24">
          <mxGeometry width="80" relative="1" as="geometry">
            <mxPoint x="260" y="320" as="sourcePoint" />
            <mxPoint x="340" y="320" as="targetPoint" />
            <Array as="points">
              <mxPoint x="220" y="370" />
            </Array>
          </mxGeometry>
        </mxCell>
        <mxCell id="VzhV1w4Y9E7jyR9WxPUb-25" value="return" style="html=1;verticalAlign=bottom;endArrow=open;dashed=1;endSize=8;curved=0;rounded=0;" edge="1" parent="1" source="VzhV1w4Y9E7jyR9WxPUb-16" target="VzhV1w4Y9E7jyR9WxPUb-14">
          <mxGeometry relative="1" as="geometry">
            <mxPoint x="340" y="320" as="sourcePoint" />
            <mxPoint x="260" y="320" as="targetPoint" />
            <Array as="points">
              <mxPoint x="380" y="400" />
            </Array>
          </mxGeometry>
        </mxCell>
        <mxCell id="VzhV1w4Y9E7jyR9WxPUb-26" value="alt1" style="shape=umlFrame;whiteSpace=wrap;html=1;pointerEvents=0;" vertex="1" parent="1">
          <mxGeometry x="90" y="420" width="675" height="290" as="geometry" />
        </mxCell>
        <mxCell id="VzhV1w4Y9E7jyR9WxPUb-28" value="[valid Details]" style="text;html=1;align=center;verticalAlign=middle;resizable=0;points=[];autosize=1;strokeColor=none;fillColor=none;" vertex="1" parent="1">
          <mxGeometry x="280" y="428" width="90" height="30" as="geometry" />
        </mxCell>
        <mxCell id="VzhV1w4Y9E7jyR9WxPUb-30" value="saveAnnouncement(details)" style="html=1;verticalAlign=bottom;endArrow=block;curved=0;rounded=0;" edge="1" parent="1" source="VzhV1w4Y9E7jyR9WxPUb-13" target="VzhV1w4Y9E7jyR9WxPUb-31">
          <mxGeometry width="80" relative="1" as="geometry">
            <mxPoint x="280" y="330" as="sourcePoint" />
            <mxPoint x="360" y="330" as="targetPoint" />
          </mxGeometry>
        </mxCell>
        <mxCell id="VzhV1w4Y9E7jyR9WxPUb-31" value="" style="html=1;points=[[0,0,0,0,5],[0,1,0,0,-5],[1,0,0,0,5],[1,1,0,0,-5]];perimeter=orthogonalPerimeter;outlineConnect=0;targetShapes=umlLifeline;portConstraint=eastwest;newEdgeStyle={&quot;curved&quot;:0,&quot;rounded&quot;:0};fillColor=#0000FF;" vertex="1" parent="1">
          <mxGeometry x="635" y="480" width="10" height="30" as="geometry" />
        </mxCell>
        <mxCell id="VzhV1w4Y9E7jyR9WxPUb-33" value="AnnouncmentList" style="shape=umlLifeline;perimeter=lifelinePerimeter;whiteSpace=wrap;html=1;container=1;dropTarget=0;collapsible=0;recursiveResize=0;outlineConnect=0;portConstraint=eastwest;newEdgeStyle={&quot;curved&quot;:0,&quot;rounded&quot;:0};" vertex="1" parent="1">
          <mxGeometry x="250" y="60" width="100" height="650" as="geometry" />
        </mxCell>
        <mxCell id="VzhV1w4Y9E7jyR9WxPUb-34" value="" style="html=1;points=[[0,0,0,0,5],[0,1,0,0,-5],[1,0,0,0,5],[1,1,0,0,-5]];perimeter=orthogonalPerimeter;outlineConnect=0;targetShapes=umlLifeline;portConstraint=eastwest;newEdgeStyle={&quot;curved&quot;:0,&quot;rounded&quot;:0};fillColor=#0000FF;" vertex="1" parent="VzhV1w4Y9E7jyR9WxPUb-33">
          <mxGeometry x="45" y="450" width="10" height="40" as="geometry" />
        </mxCell>
        <mxCell id="VzhV1w4Y9E7jyR9WxPUb-35" value="display()" style="html=1;verticalAlign=bottom;endArrow=block;curved=0;rounded=0;" edge="1" parent="1" source="VzhV1w4Y9E7jyR9WxPUb-16" target="VzhV1w4Y9E7jyR9WxPUb-34">
          <mxGeometry width="80" relative="1" as="geometry">
            <mxPoint x="280" y="330" as="sourcePoint" />
            <mxPoint x="360" y="330" as="targetPoint" />
          </mxGeometry>
        </mxCell>
        <mxCell id="VzhV1w4Y9E7jyR9WxPUb-36" value="" style="endArrow=none;dashed=1;html=1;dashPattern=1 3;strokeWidth=2;rounded=0;exitX=0.001;exitY=0.625;exitDx=0;exitDy=0;exitPerimeter=0;entryX=1.006;entryY=0.631;entryDx=0;entryDy=0;entryPerimeter=0;" edge="1" parent="1" source="VzhV1w4Y9E7jyR9WxPUb-26" target="VzhV1w4Y9E7jyR9WxPUb-26">
          <mxGeometry width="50" height="50" relative="1" as="geometry">
            <mxPoint x="300" y="580" as="sourcePoint" />
            <mxPoint x="350" y="530" as="targetPoint" />
          </mxGeometry>
        </mxCell>
        <mxCell id="VzhV1w4Y9E7jyR9WxPUb-37" value="[No valid Details]" style="text;whiteSpace=wrap;html=1;" vertex="1" parent="1">
          <mxGeometry x="290" y="610" width="180" height="40" as="geometry" />
        </mxCell>
        <mxCell id="VzhV1w4Y9E7jyR9WxPUb-38" value="" style="html=1;points=[[0,0,0,0,5],[0,1,0,0,-5],[1,0,0,0,5],[1,1,0,0,-5]];perimeter=orthogonalPerimeter;outlineConnect=0;targetShapes=umlLifeline;portConstraint=eastwest;newEdgeStyle={&quot;curved&quot;:0,&quot;rounded&quot;:0};fillColor=#0000FF;" vertex="1" parent="1">
          <mxGeometry x="125" y="640" width="10" height="50" as="geometry" />
        </mxCell>
        <mxCell id="VzhV1w4Y9E7jyR9WxPUb-39" value="showmsg()" style="html=1;verticalAlign=bottom;endArrow=block;curved=0;rounded=0;" edge="1" parent="1" source="VzhV1w4Y9E7jyR9WxPUb-38" target="VzhV1w4Y9E7jyR9WxPUb-40">
          <mxGeometry width="80" relative="1" as="geometry">
            <mxPoint x="280" y="450" as="sourcePoint" />
            <mxPoint x="360" y="450" as="targetPoint" />
          </mxGeometry>
        </mxCell>
        <mxCell id="VzhV1w4Y9E7jyR9WxPUb-41" value="MessageScreen" style="shape=umlLifeline;perimeter=lifelinePerimeter;whiteSpace=wrap;html=1;container=1;dropTarget=0;collapsible=0;recursiveResize=0;outlineConnect=0;portConstraint=eastwest;newEdgeStyle={&quot;curved&quot;:0,&quot;rounded&quot;:0};" vertex="1" parent="1">
          <mxGeometry x="430" y="60" width="100" height="650" as="geometry" />
        </mxCell>
        <mxCell id="VzhV1w4Y9E7jyR9WxPUb-40" value="" style="html=1;points=[[0,0,0,0,5],[0,1,0,0,-5],[1,0,0,0,5],[1,1,0,0,-5]];perimeter=orthogonalPerimeter;outlineConnect=0;targetShapes=umlLifeline;portConstraint=eastwest;newEdgeStyle={&quot;curved&quot;:0,&quot;rounded&quot;:0};fillColor=#0000CC;" vertex="1" parent="VzhV1w4Y9E7jyR9WxPUb-41">
          <mxGeometry x="45" y="585" width="10" height="40" as="geometry" />
        </mxCell>
      </root>
    </mxGraphModel>
  </diagram>
</mxfile>
